<svg width="500" height="500" viewBox="0 0 500 500" fill="none" xmlns="http://www.w3.org/2000/svg"><path d="M226.099 32.5625L387.605 121.282L387.141 290.615L410.411 304.05L411.34 462.496L87.9421 300.807V139.351L226.099 32.5625Z" fill="#FFBC2D"/><path d="M253.954 381.014L253.902 308.636L406.293 384.589V458.182L253.954 381.014ZM245.146 376.167L172.69 339.461V186.913L245.146 223.79V376.167ZM92.8076 298.998L92.7129 146.204L163.981 182.481L163.984 182.482V335.055H163.981L92.8076 298.998ZM227.132 37.1162L295.651 74.7821V74.7835L167.751 175.928L95.4632 139.188L227.132 37.1162ZM249.245 217.346L175.397 179.812L303.057 78.8537H303.058L379.782 121.033L249.245 217.346ZM382.503 285.285L306.918 246.814H306.916V184.413H306.918L382.503 128.634V285.285ZM298.21 242.384L256.871 221.346L298.21 190.839V242.384ZM406.293 305.806V376.222L253.902 300.27L253.852 228.226L406.293 305.806ZM391.209 289.715V118.709L226.21 28L84 138.233L84.007 141.775L84.1016 302.992L245.248 384.621V385.009L415 471V301.823L391.209 289.715Z" fill="#333333"/><path d="M87.9421 139.351L249.751 221.786L385.903 291.147L410.411 304.05L411.34 462.496L87.9421 300.807V139.351Z" fill="#FF3D3D"/><path d="M253.954 381.014L253.902 308.636L406.293 384.589V458.182L253.954 381.014ZM245.146 376.167L172.69 339.461V186.913L245.146 223.79V376.167ZM92.8076 298.998L92.7129 146.204L163.981 182.481L163.984 182.482V335.055H163.981L92.8076 298.998ZM227.132 37.1162L295.651 74.7821V74.7835L167.751 175.928L95.4632 139.188L227.132 37.1162ZM249.245 217.346L175.397 179.812L303.057 78.8537H303.058L379.782 121.033L249.245 217.346ZM382.503 285.285L306.918 246.814H306.916V184.413H306.918L382.503 128.634V285.285ZM298.21 242.384L256.871 221.346L298.21 190.839V242.384ZM406.293 305.806V376.222L253.902 300.27L253.852 228.226L406.293 305.806ZM391.209 289.715V118.709L226.21 28L84 138.233L84.007 141.775L84.1016 302.992L245.248 384.621V385.009L415 471V301.823L391.209 289.715Z" fill="#333333"/><path d="M87.9421 139.351L249.751 221.786L250.679 380.232L87.9421 300.807V139.351Z" fill="#039BE5"/><path d="M253.954 381.014L253.902 308.636L406.293 384.589V458.182L253.954 381.014ZM245.146 376.167L172.69 339.461V186.913L245.146 223.79V376.167ZM92.8076 298.998L92.7129 146.204L163.981 182.481L163.984 182.482V335.055H163.981L92.8076 298.998ZM227.132 37.1162L295.651 74.7821V74.7835L167.751 175.928L95.4632 139.188L227.132 37.1162ZM249.245 217.346L175.397 179.812L303.057 78.8537H303.058L379.782 121.033L249.245 217.346ZM382.503 285.285L306.918 246.814H306.916V184.413H306.918L382.503 128.634V285.285ZM298.21 242.384L256.871 221.346L298.21 190.839V242.384ZM406.293 305.806V376.222L253.902 300.27L253.852 228.226L406.293 305.806ZM391.209 289.715V118.709L226.21 28L84 138.233L84.007 141.775L84.1016 302.992L245.248 384.621V385.009L415 471V301.823L391.209 289.715Z" fill="#333333"/></svg>